<?xml version="1.0" encoding="utf-8"?>
<!-- Generator: Adobe Illustrator 27.5.0, SVG Export Plug-In . SVG Version: 6.00 Build 0)  -->
<svg version="1.1" xmlns="http://www.w3.org/2000/svg" xmlns:xlink="http://www.w3.org/1999/xlink" x="0px" y="0px"
	 viewBox="0 0 500 500" style="enable-background:new 0 0 500 500;" xml:space="preserve">
<g id="BACKGROUND">
	<polygon style="fill:#F4C9D3;" points="500,500 0,500 0,0 500,0 500,500 	"/>
</g>
<g id="OBJECT">
	<path style="fill:#F9E1E7;" d="M367.524,67.056c-74.103-18.713-117.458,53.962-117.458,53.962s-43.355-72.674-117.458-53.962
		c-74.103,18.713-91.239,70.738-84.583,129.076c6.157,53.961,105.796,195.792,202.041,239.891
		c96.246-44.099,196.119-185.904,202.041-239.891C458.307,139.611,441.628,85.769,367.524,67.056z"/>
	<g>
		<path style="fill:#F4B8C8;" d="M416.927,23.536c-2.703-5.361-7.215-8.435-12.38-8.435c-5.156,0-10.095,3.078-13.073,7.848
			c-0.474-0.036-0.949-0.055-1.425-0.055c-5.6,0-10.68,2.602-13.259,6.791c-2.507,4.071-2.498,9.069,0.024,14.073
			c6.146,12.188,26.696,12.745,29.02,12.768l2.584,0.026l1.517-2.093C411.297,52.578,423.074,35.723,416.927,23.536z
			 M405.885,51.527c0,0-19.653-0.198-24.605-10.02c-4.951-9.82,4.617-15.701,13.038-12.924c2.775-8.422,13.193-12.617,18.144-2.796
			C417.415,35.608,405.885,51.527,405.885,51.527z"/>
		<path style="fill:#F4B8C8;" d="M154.246,32.34c-2.703-5.361-7.215-8.435-12.38-8.435c-5.156,0-10.095,3.078-13.073,7.848
			c-0.474-0.036-0.949-0.055-1.425-0.055c-5.6,0-10.68,2.602-13.259,6.791c-2.507,4.071-2.498,9.069,0.024,14.073
			c6.146,12.188,26.696,12.745,29.02,12.769l2.584,0.026l1.517-2.093C148.617,61.383,160.393,44.528,154.246,32.34z M143.204,60.331
			c0,0-19.653-0.198-24.605-10.02c-4.951-9.82,4.617-15.701,13.038-12.924c2.775-8.422,13.193-12.617,18.144-2.796
			C154.734,44.412,143.204,60.331,143.204,60.331z"/>
		<path style="fill:#F4B8C8;" d="M484.83,292.086c1.529-5.806,0.188-11.098-3.68-14.521c-3.861-3.417-9.599-4.386-14.991-2.788
			c-0.331-0.341-0.675-0.67-1.031-0.985c-4.193-3.711-9.722-5.13-14.429-3.702c-4.576,1.387-7.882,5.135-9.309,10.554
			c-3.476,13.2,11.543,27.238,13.267,28.795l1.917,1.732l2.523-0.562C461.366,310.102,481.355,305.285,484.83,292.086z
			 M458.01,305.727c0,0-14.585-13.174-11.784-23.811c2.801-10.635,13.864-8.697,18.329-1.036c7.66-4.467,18.241-0.704,15.44,9.932
			C477.195,301.448,458.01,305.727,458.01,305.727z"/>
		<path style="fill:#F4B8C8;" d="M78.69,283.311c1.529-5.806,0.188-11.098-3.68-14.521c-3.861-3.418-9.599-4.386-14.991-2.788
			c-0.331-0.341-0.675-0.67-1.031-0.985c-4.193-3.711-9.722-5.13-14.429-3.702c-4.576,1.387-7.882,5.136-9.309,10.554
			c-3.476,13.2,11.543,27.237,13.268,28.795l1.917,1.732l2.523-0.562C55.225,301.327,75.215,296.511,78.69,283.311z M51.869,296.952
			c0,0-14.585-13.174-11.784-23.811c2.801-10.635,13.863-8.697,18.329-1.036c7.66-4.467,18.241-0.704,15.44,9.932
			C71.054,292.674,51.869,296.952,51.869,296.952z"/>
	</g>
	<rect y="358.066" style="fill:#E16F94;" width="500" height="141.934"/>
	<ellipse style="fill:#D12A6E;" cx="262.699" cy="442.057" rx="169.486" ry="24.502"/>
	<g>
		<g>
			<rect x="391.813" y="305.081" style="fill:#935F14;" width="9.982" height="143.975"/>
			<rect x="118.813" y="305.082" style="fill:#B57610;" width="9.988" height="143.968"/>
		</g>
		<polygon style="fill:#935F14;" points="128.801,305.082 128.801,449.05 124.354,449.05 124.354,315.154 118.813,315.154 
			118.813,305.082 		"/>
		<g>
			<rect x="128.247" y="161.094" style="fill:#B57610;" width="11.752" height="143.986"/>
			<rect x="380.61" y="161.094" style="fill:#B57610;" width="11.752" height="143.986"/>
		</g>
		<rect x="129.79" y="170.727" style="fill:#B57610;" width="256.691" height="62.355"/>
		<rect x="106.898" y="285.918" style="fill:#B57610;" width="306.819" height="23.747"/>
		<polygon style="fill:#935F14;" points="398.833,285.918 390.751,309.665 123.395,309.665 119.771,285.918 		"/>
		<path style="fill:#935F14;" d="M359.881,233.082H152.86l-12.863-11.467l8.457-50.888H363.62
			C364.672,191.734,362.006,217.137,359.881,233.082z"/>
		<polygon style="fill:#935F14;" points="380.607,170.727 380.607,233.082 373.618,233.082 380.347,170.727 		"/>
	</g>
	<g>
		<path style="fill:#3F2F2F;" d="M185.008,108.444c0,0-3.688,12.211-2.933,14.854c0.755,2.644,2.933-2.518,2.933-2.518
			s-1.347,7.061,0,7.999s2.104-4.152,2.104-4.152s1.005,6.475,2.012,6.978c1.007,0.503,2.14-2.827,2.14-2.827
			s-0.755,5.47,2.14,6.351c2.895,0.881,9.189-6.351,9.189-6.351L185.008,108.444z"/>
		<polygon style="fill:#FFA597;" points="216.312,382.108 206.947,411.305 223.84,415.345 238.163,386.883 		"/>
		<path style="fill:#6B5151;" d="M255.938,441.333c0,0-15.092,2.281-27.913,1.854c-12.821-0.427-26.923-7.697-26.923-7.697
			l0.396-7.041l0.458-8.342l1.406-6.301c0.771-3.458,2.718-6.53,5.52-8.686l0.063-0.063c2.52,4.718,9.821,5.718,9.821,5.718
			s2.458-3.749,7.791-2.312c5.332,1.427,3.02,10.415,3.02,10.415s21.476,11.613,24.257,12.654c1.25,0.469,1.802,2.468,2.031,4.541
			C256.146,438.646,255.938,441.333,255.938,441.333z"/>
		<path style="fill:#EFCECE;" d="M255.938,441.333c0,0-15.092,2.281-27.913,1.854c-12.821-0.427-26.923-7.697-26.923-7.697
			l0.396-7.041c6.405,3.083,16.32,7.686,20.278,8.53c4.968,1.052,26.538-0.365,34.089-0.906
			C256.146,438.646,255.938,441.333,255.938,441.333z"/>
		<polygon style="fill:#FFA597;" points="172.241,396.982 181.79,423.241 200.52,418.65 191.338,386.883 		"/>
		<path style="fill:#448495;" d="M165.087,258.099l-3.177,24.528l-25.996,12.488c0,0-3.135,0.24-11.561-3.427
			c-1.833-0.802-3.927-1.791-6.291-3c-13.206-6.78-15.3-15.55-15.3-15.55l-1.895-4.239l7.593-15.164l6.322-3.583l22.986-43.837
			l11.186-1.968l7.249,4.281L165.087,258.099z"/>
		<path style="fill:#2E6875;" d="M165.087,258.099l-3.177,24.528l-25.996,12.488c0,0-3.135,0.24-11.561-3.427l24.6-87.341
			l7.249,4.281L165.087,258.099z"/>
		<path style="fill:#3D3232;" d="M174.246,261.116c0,0-38.802,8.86-43.996,26.581c-5.194,17.721,35.136,115.184,35.136,115.184
			l35.134-11.305l-29.634-96.241l38.496-5.194l40.286,7.724l-37.536,86.684l32.691,16.498c0,0,54.689-105.407,42.163-121.905
			c-12.527-16.499-31.362-20.165-31.362-20.165L174.246,261.116z"/>
		<path style="fill:#FF8D79;" d="M269.738,254.215c-3.104,3.375-28.777,22.163-41.286,29.006c0,0-4.906,9.301-8.613,11.144
			c-3.697,1.854-7.457,3.802-11.311,3.51c-3.854-0.302-9.655-4.499-9.655-4.499l-2.343-17.018l3.947-6.801l5.832-5.645
			c0,0,3.77-2.625,6.603-1.052c2.833,1.573,8.384,3.666,9.436,4.926c1.042,1.26,1.989,1.156,1.989,1.156l25.329-23.653
			l-3.731-40.942h21.499c0,0,2.635,22.653,3.166,37.473C270.832,248.236,270.675,253.194,269.738,254.215z"/>
		<path style="fill:#FFD0CA;" d="M225.057,277.367c0.365,2.187-6.124,1.167-9.259,0.656c-3.135-0.51-11.071-5.312-11.8-4.51
			c-0.729,0.802,1.458,4.218,3.645,6.697c2.187,2.479,13.988,1.312,14.206,3.645c0.219,2.333-8.967,2.916-11.217,2.479
			c-2.26-0.437-7.436-5.031-8.384-2.843c-0.948,2.187,2.989,4.739,4.666,5.614c1.677,0.875,10.342-0.073,10.342,2.041
			c0,2.114-8.728,3.125-8.728,3.125c-4.656-1.594-8.249-3.198-7.301-1.302c0.917,1.812,6.832,4.676,7.27,4.895
			c-0.562-0.167-9.697-2.854-11.894-4.01c-2.281-1.187-7.28-9.759-7.28-9.759s-38.328-22.247-41.942-29.298
			c-1.167-2.27-1.437-7.895-1.25-14.477c0.146-5.666,0.625-12.04,1.146-17.612c0.74-8.04,1.552-14.373,1.552-14.373l21.768-1.802
			l-1.739,40.817c1.792,1.948,21.466,19.341,22.695,20.424l0.063,0.052c0,0,9.395-3.937,11.8-4.447
			c2.406-0.51,4.812-1.094,6.853,0.365c2.031,1.458,9.176,1.385,8.52,3.864c-0.656,2.479-9.905,1.948-9.905,1.948
			s2.26,2.208,4.145,3.302C214.923,273.951,224.693,275.18,225.057,277.367z"/>
		<path style="fill:#FFA597;" d="M163.16,247.361V224.75c-6.614,0.135-12.352-1.062-15.883-2.041
			c0.74-8.04,1.552-14.373,1.552-14.373l21.768-1.802l-1.739,40.817c1.792,1.948,21.466,19.341,22.695,20.424L163.16,247.361z"/>
		<path style="fill:#B73B0F;" d="M254.324,213.773c-4.104,0.49-7.041,0.573-7.041,0.573l2.385,30.943v15.331
			c0,0-10.061,9.936-36.64,12.238c-26.569,2.291-46.129-9.967-46.129-9.967l2.989-46.483c-19.768,1.646-28.069-6.978-28.069-6.978
			s6.988-21.038,12.061-35.682c2.427-7.041,4.416-12.602,4.978-13.633c1.708-3.187,35.651-20.632,35.651-20.632
			c8.613,3.427,30.85,0.542,30.85,0.542s22.726,10.54,27.392,13.54c1.229,0.781,3.302,4.895,5.697,10.519
			c1.635,3.843,3.416,8.395,5.187,13.081c5.52,14.644,10.853,30.662,10.853,30.662C269.03,211.419,260.396,213.044,254.324,213.773z
			"/>
		<path style="fill:#3D3232;" d="M174.149,219.617l-4.948,7.409l-0.567,8.825c0,0,5.28-6.104,9.402-13.996L174.149,219.617z"/>
		<path style="fill:#89280A;" d="M263.635,177.164c-13.602,5.78-31.849,11.852-52.576,14.435
			c-24.528,3.052-44.327-7.624-57.179-17.851c2.427-7.041,4.416-12.602,4.978-13.633c1.708-3.187,35.651-20.632,35.651-20.632
			c8.613,3.427,30.85,0.542,30.85,0.542s22.726,10.54,27.392,13.54C254.813,154.886,259.281,165.603,263.635,177.164z"/>
		<path style="fill:#FFA597;" d="M225.672,135.701c-0.521,4.406-0.469,11.988-0.354,16.852c0.063,2.708,0.135,4.572,0.135,4.572
			s-2.437,5.728-14.394,5.874c-11.946,0.146-18.831-17.529-18.831-17.529c0.427-0.531,0.812-1.281,1.177-2.187
			c2.52-6.468,3.197-20.841,3.197-20.841l22.195,4.229C218.798,126.671,226.474,128.858,225.672,135.701z"/>
		<polygon style="fill:#89280A;" points="172.73,215.437 169.937,179.924 177.356,184.584 174.647,210.229 		"/>
		<path style="fill:#89280A;" d="M185.575,230.425c0,0,18.808,5.038,30.739,3.182c11.932-1.856,19.523-7.689,19.523-7.689
			S218.736,255.879,185.575,230.425z"/>
		<path style="fill:#FF8D79;" d="M225.672,135.701c-0.521,4.406-0.469,11.988-0.354,16.852c-3.197,0.281-6.936,0.219-11.207-0.417
			c-9.28-1.375-16.175-5.322-20.705-8.853c2.52-6.468,3.197-20.841,3.197-20.841l22.195,4.229
			C218.798,126.671,226.474,128.858,225.672,135.701z"/>
		<polygon style="fill:#EFCECE;" points="194.512,139.485 211.062,162.996 193.373,174.494 192.229,140.667 		"/>
		<g>
			
				<line style="fill:none;stroke:#5AE2DE;stroke-width:0.7811;stroke-miterlimit:10;" x1="211.873" y1="235.514" x2="211.873" y2="292.406"/>
			<path style="fill:#E58C3C;" d="M225.211,210.736c-2.552-3.657-5.582,0-5.582,0s0.586-2.759-1.177-3.721
				c-1.763-0.962-3.287,0.481-3.287,0.481s-0.607-1.954-3.292-4.639c-2.686,2.686-3.292,4.639-3.292,4.639s-1.523-1.443-3.287-0.481
				c-1.764,0.962-1.177,3.721-1.177,3.721s-3.03-3.657-5.582,0c-2.539,3.638,3.81,11.341,3.81,11.341l9.528,2.813l9.528-2.813
				C221.401,222.077,227.75,214.374,225.211,210.736z"/>
			<path style="fill:#EDBE72;" d="M221.24,230.995c0,0,2.141-9.348,10.103-10.713c0,0-3.981-2.958-8.304-0.91
				c0,0-2.799-5.95-9.896-3.185v21.271L221.24,230.995z"/>
			<path style="fill:#EDBE72;" d="M202.506,230.995c0,0-2.141-9.348-10.103-10.713c0,0,3.981-2.958,8.304-0.91
				c0,0,2.799-5.95,9.896-3.185v21.271L202.506,230.995z"/>
			<g>
				<g>
					<path style="fill:#E4E6C1;" d="M214.307,217.408c-0.009-0.062-0.912-6.222,1.942-12.914l0.156,0.066
						c-2.834,6.646-1.939,12.761-1.93,12.822L214.307,217.408z"/>
				</g>
				<g>
					<path style="fill:#E4E6C1;" d="M214.604,211.459c-0.043,0-0.087-0.001-0.131-0.002l0.003-0.169
						c0.043,0.001,0.086,0.001,0.128,0.001c2.963,0,3.939-1.865,3.948-1.884l0.151,0.076
						C218.693,209.502,217.676,211.459,214.604,211.459z"/>
				</g>
				<g>
					<path style="fill:#E4E6C1;" d="M208.608,217.109c-3.399-3.039-5.677-9.829-5.699-9.897l0.161-0.053
						c0.022,0.068,2.286,6.816,5.651,9.824L208.608,217.109z"/>
				</g>
				<g>
					<path style="fill:#E4E6C1;" d="M205.309,212.519l-0.043-0.164c1.841-0.479,1.427-3.861,1.423-3.895l0.168-0.021
						C206.876,208.583,207.294,212.003,205.309,212.519z"/>
				</g>
				<g>
					<path style="fill:#E4E6C1;" d="M203.979,206.321c0.33,0.949,0.083,1.897-0.553,2.118c-0.635,0.221-1.418-0.369-1.748-1.318
						c-0.33-0.949-0.083-1.897,0.553-2.118C202.867,204.782,203.649,205.372,203.979,206.321z"/>
				</g>
				<g>
					<path style="fill:#E4E6C1;" d="M208.036,207.547c0,1.005-0.545,1.819-1.218,1.819c-0.673,0-1.218-0.814-1.218-1.819
						c0-1.005,0.545-1.819,1.218-1.819C207.491,205.728,208.036,206.542,208.036,207.547z"/>
				</g>
				<g>
					<path style="fill:#E4E6C1;" d="M217.316,204.827c-0.247,0.974-0.976,1.629-1.628,1.463c-0.652-0.166-0.98-1.089-0.733-2.063
						c0.247-0.974,0.976-1.629,1.628-1.463C217.236,202.93,217.564,203.853,217.316,204.827z"/>
				</g>
				<g>
					<path style="fill:#E4E6C1;" d="M219.944,209.641c-0.551,0.84-1.453,1.223-2.016,0.854c-0.563-0.369-0.572-1.349-0.021-2.189
						c0.551-0.84,1.453-1.223,2.016-0.854C220.486,207.821,220.495,208.801,219.944,209.641z"/>
				</g>
			</g>
			<path style="fill:#F2A253;" d="M222,222.376c-1.396-1.722-3.12-2.97-4.992-3.77c-0.33-5.89-4.67-9.661-5.242-10.131
				c0,0,0,0-0.031-0.025c-0.031,0.025-0.031,0.025-0.031,0.025c-0.576,0.474-4.973,4.295-5.248,10.257
				c-1.918,0.872-3.667,2.213-5.042,4.053l0,0l10.459,18.115l10.459-18.115L222,222.376z"/>
			
				<line style="fill:none;stroke:#E4E6C1;stroke-width:0.2604;stroke-miterlimit:10;" x1="211.873" y1="233.297" x2="211.873" y2="212.134"/>
			
				<line style="fill:none;stroke:#E4E6C1;stroke-width:0.2604;stroke-miterlimit:10;" x1="210.602" y1="234.721" x2="206.086" y2="223.182"/>
			
				<line style="fill:none;stroke:#E4E6C1;stroke-width:0.2604;stroke-miterlimit:10;" x1="213.452" y1="234.721" x2="218.703" y2="222.437"/>
			<path style="fill:#3BA1B2;" d="M213.757,233.701l-1.884-3.263l-1.904,3.297c-4.949-4.245-8.555-4.29-8.555-4.29v1.677
				c0,5.777,4.683,10.46,10.46,10.46c5.776,0,10.458-4.682,10.458-10.458v-1.679C218.69,229.988,215.613,232.117,213.757,233.701z"
				/>
			
				<line style="fill:none;stroke:#E4E6C1;stroke-width:0.2604;stroke-miterlimit:10;" x1="211.873" y1="223.982" x2="214.472" y2="221.614"/>
			
				<line style="fill:none;stroke:#E4E6C1;stroke-width:0.2604;stroke-miterlimit:10;" x1="208.721" y1="216.983" x2="211.873" y2="219.923"/>
			
				<line style="fill:none;stroke:#E4E6C1;stroke-width:0.2604;stroke-miterlimit:10;" x1="211.873" y1="216.25" x2="214.164" y2="213.873"/>
			
				<line style="fill:none;stroke:#E4E6C1;stroke-width:0.2604;stroke-miterlimit:10;" x1="209.833" y1="225.917" x2="211.873" y2="228.766"/>
			
				<line style="fill:none;stroke:#E4E6C1;stroke-width:0.2604;stroke-miterlimit:10;" x1="216.985" y1="226.456" x2="216.791" y2="222.798"/>
			
				<line style="fill:none;stroke:#E4E6C1;stroke-width:0.2604;stroke-miterlimit:10;" x1="215.284" y1="230.436" x2="216.888" y2="229.732"/>
			
				<line style="fill:none;stroke:#E4E6C1;stroke-width:0.2604;stroke-miterlimit:10;" x1="206.906" y1="225.277" x2="207.755" y2="222.798"/>
			
				<line style="fill:none;stroke:#E4E6C1;stroke-width:0.2604;stroke-miterlimit:10;" x1="208.925" y1="230.436" x2="206.595" y2="228.766"/>
		</g>
		<polygon style="fill:#EFCECE;" points="225.356,140.027 211.062,162.996 231.343,174.494 228.46,141.476 		"/>
		<path style="fill:#448495;" d="M188.396,197.359c-3.947,23.653-10.998,27.392-10.998,27.392l-0.5-0.448l-4.687-4.124
			c0,0,1.896-15.581,2.416-32.224c0.427-14.144-0.115-29.048-3.645-35.818c0,0,3.77-8.77,13.915-7.613
			C184.896,144.523,192.333,173.706,188.396,197.359z"/>
		<path style="fill:#89280A;" d="M274.487,207.826c-5.457,3.593-14.092,5.218-20.164,5.947l-6.426-40.515l10.55-9.176
			c1.635,3.843,3.416,8.395,5.187,13.081C269.155,191.807,274.487,207.826,274.487,207.826z"/>
		<path style="fill:#FFA597;" d="M269.738,254.215c-3.104,3.375-28.777,22.163-41.286,29.006c0,0-4.906,9.301-8.613,11.144
			c-3.697,1.854-7.457,3.802-11.311,3.51c-3.854-0.302-9.655-4.499-9.655-4.499l-1.552-11.259l-0.792-5.76l3.947-6.801l5.832-5.645
			c0,0,3.77-2.625,6.603-1.052c2.833,1.573,8.384,3.666,9.436,4.926c1.042,1.26,1.989,1.156,1.989,1.156l24.736-23.101l0.594-0.552
			c5.551-7.259,14.508-5.853,20.934-3.468C270.832,248.236,270.675,253.194,269.738,254.215z"/>
		<path style="fill:#FF8D79;" d="M269.738,254.215c-3.104,3.375-28.777,22.163-41.286,29.006c0,0-4.906,9.301-8.613,11.144
			c-3.697,1.854-7.457,3.802-11.311,3.51c-3.854-0.302-9.655-4.499-9.655-4.499l-1.552-11.259l-0.125-1.021
			c0,0,8.155,1.281,17.424,2.552c9.269,1.281,12.467-3.031,12.467-3.031l25.579-21.58l-1.76-9.905l-1.833-3.291l0.594-0.552
			c5.551-7.259,14.508-5.853,20.934-3.468C270.832,248.236,270.675,253.194,269.738,254.215z"/>
		<path style="fill:#968171;" d="M162.348,401.37l3.848,9.407c0,0,24.073-4.855,37.416-14.325l-3.092-9.57
			C200.52,386.883,169.831,399.552,162.348,401.37z"/>
		<path style="fill:#968171;" d="M212.717,375.106l-4.502,8.464c0,0,10.394,17.514,37.021,23.352l5.695-9.825
			C250.931,397.097,224.197,387.146,212.717,375.106z"/>
		<path style="fill:#6B5151;" d="M206.945,444.447c-3.354,3.51-15.279,5.635-31.662,7.884c-16.383,2.25-32.266,2.125-33.141,1.5
			c-0.49-0.344-0.708-3.541-0.552-6.405c0.104-2.271,0.448-4.333,1.052-4.603c1.375-0.625,29.016-17.633,29.016-17.633
			s1.625-6.374,6.124-7.499c4.499-1.125,11.009,1.5,11.009,1.5c3.499-1.125,10.061-6.312,10.061-6.312
			c3.333,0.625,8.124,16.175,8.863,25.34C207.976,441.249,207.779,443.582,206.945,444.447z"/>
		<path style="fill:#FFD0CA;" d="M225.057,277.367c0.365,2.187-6.124,1.167-9.259,0.656c-3.135-0.51-11.071-5.312-11.8-4.51
			c-0.729,0.802,1.458,4.218,3.645,6.697c2.187,2.479,13.988,1.312,14.206,3.645c0.219,2.333-8.967,2.916-11.217,2.479
			c-2.26-0.437-7.436-5.031-8.384-2.843c-0.948,2.187,2.989,4.739,4.666,5.614c1.677,0.875,10.342-0.073,10.342,2.041
			c0,2.114-8.728,3.125-8.728,3.125c-4.656-1.594-8.249-3.198-7.301-1.302c0.917,1.812,6.832,4.676,7.27,4.895
			c-0.562-0.167-9.697-2.854-11.894-4.01c-2.281-1.187-7.28-9.759-7.28-9.759s-38.328-22.247-41.942-29.298
			c-1.167-2.27-1.437-7.895-1.25-14.477c7.041-1.562,13.133,0.667,17.029,2.843c2.885,1.604,4.572,3.177,4.572,3.177
			c0.49,0.531,2.364,2.26,4.864,4.52c1.042,0.948,2.239,2.021,3.51,3.166c0.281,0.26,0.583,0.521,0.875,0.792
			c1.114,1,2.281,2.031,3.437,3.073c0.333,0.292,0.656,0.594,0.99,0.885c0.01,0.01,0.021,0.021,0.031,0.021
			c0.708,0.625,1.417,1.25,2.094,1.864c0.344,0.313,0.677,0.615,1.01,0.896c0.698,0.615,1.364,1.208,1.989,1.77
			c0.562,0.49,1.094,0.958,1.583,1.406c0.01,0.01,0.021,0.021,0.031,0.021c0.479,0.427,0.927,0.823,1.323,1.177
			c0.354,0.323,0.677,0.604,0.958,0.844c0.114,0.104,0.229,0.198,0.323,0.292c0.406,0.365,0.688,0.604,0.802,0.708
			c0.042,0.031,0.063,0.052,0.063,0.052s9.395-3.937,11.8-4.447c2.406-0.51,4.812-1.094,6.853,0.365
			c2.031,1.458,9.176,1.385,8.52,3.864c-0.656,2.479-9.905,1.948-9.905,1.948s2.26,2.208,4.145,3.302
			C214.923,273.951,224.693,275.18,225.057,277.367z"/>
		<path style="fill:#FFA597;" d="M191.552,267.775l-28.392-20.414v-4.197c2.885,1.604,4.572,3.177,4.572,3.177
			c0.49,0.531,2.364,2.26,4.864,4.52c1.042,0.948,2.239,2.021,3.51,3.166c0.281,0.26,0.573,0.521,0.875,0.792
			c1.114,1,2.281,2.031,3.437,3.073c0.333,0.292,0.656,0.594,0.99,0.885c0.01,0.01,0.021,0.021,0.031,0.021
			c0.708,0.635,1.406,1.26,2.094,1.864c0.344,0.313,0.677,0.615,1.01,0.896c0.698,0.625,1.364,1.219,1.989,1.77
			c0.562,0.5,1.094,0.969,1.583,1.406c0.01,0.01,0.021,0.021,0.031,0.021c0.479,0.437,0.927,0.823,1.323,1.177
			c0.354,0.323,0.677,0.604,0.958,0.844c0.114,0.115,0.219,0.208,0.323,0.292C191.156,267.431,191.437,267.671,191.552,267.775z"/>
		<polygon style="fill:#89280A;" points="249.074,245.841 240.579,192.129 242.72,195.562 243.209,179.924 247.283,214.346 
			249.668,245.289 		"/>
		<path style="fill:#2E6875;" d="M188.396,197.359c-3.947,23.653-10.998,27.392-10.998,27.392l-0.5-0.448
			c9.072-14.914,8.676-32.891,8.676-32.891c-4.656-0.646-8.645-2.312-10.946-3.458c0.427-14.144-0.115-29.048-3.645-35.818
			c0,0,3.77-8.77,13.915-7.613C184.896,144.523,192.333,173.706,188.396,197.359z"/>
		<polygon style="fill:#635B5B;" points="131.333,244.783 111.901,236.781 96.3,264.895 118.704,278.927 		"/>
		<polygon style="fill:#3D3232;" points="132.977,250.77 131.333,244.783 118.704,278.927 96.3,264.895 97.945,270.881 
			120.348,284.914 		"/>
		<polygon style="fill:#3D3232;" points="132.977,250.77 131.289,247.153 128.852,246.357 122.559,258.619 101.645,248.898 
			110.015,235.851 131.333,244.783 		"/>
		<path style="fill:#EFCECE;" d="M206.945,444.447c-3.354,3.51-15.279,5.635-31.662,7.884c-16.383,2.25-32.266,2.125-33.141,1.5
			c-0.49-0.344-0.708-3.541-0.552-6.405c10.113-0.385,28.267-1.406,42.837-4.187c10.946-2.083,18.508-3.822,23.288-5.02
			C207.976,441.249,207.779,443.582,206.945,444.447z"/>
		<path style="fill:#3BA1B2;" d="M212.252,252.962c0,0-4.098-9.693-14.686-13.697C197.567,239.265,198.727,250.563,212.252,252.962z
			"/>
		<path style="fill:none;stroke:#E4E6C1;stroke-width:0.2604;stroke-miterlimit:10;" d="M211.873,212.134"/>
		<path style="fill:#3BA1B2;" d="M211.873,258.221c0,0,2.45-7.159,13.199-9.251C225.072,248.97,224.048,256.018,211.873,258.221z"/>
		<path style="fill:#EFCECE;" d="M152.976,436.884c0,0,9.028-5.231,14.175,1.468l3.699-1.587c0,0-3.839-7.465-12.866-4.016
			C157.984,432.748,155.321,432.957,152.976,436.884z"/>
		<path style="fill:#EFCECE;" d="M163.304,430.37c0,0,9.028-5.231,14.175,1.468l3.699-1.587c0,0-3.839-7.465-12.866-4.016
			C168.313,426.235,165.649,426.444,163.304,430.37z"/>
		<path style="fill:#EFCECE;" d="M249.295,429.357c0,0-9.028-5.231-14.175,1.468l-3.699-1.587c0,0,3.839-7.465,12.866-4.016
			C244.287,425.221,246.951,425.43,249.295,429.357z"/>
		<path style="fill:#EFCECE;" d="M238.098,423.489c0,0-9.028-5.231-14.175,1.468l-3.699-1.587c0,0,3.839-7.465,12.866-4.016
			C233.09,419.354,235.754,419.563,238.098,423.489z"/>
	</g>
	<g>
		<path style="fill:#B73B0F;" d="M405.759,260.662c0,0-1.583,15.206-6.103,23.34c-0.76,1.344-1.594,2.5-2.51,3.364
			c-6.457,6.02-16.925,13.133-16.925,13.133l-37.276-39.973l-1.531-8.624l-0.812-4.593l2.062-5.176l12.019-4.312l3.697-1.5
			L405.759,260.662z"/>
		<path style="fill:#89280A;" d="M399.656,284.002c-0.76,1.344-1.594,2.5-2.51,3.364c-6.457,6.02-16.925,13.133-16.925,13.133
			l-37.276-39.973l-1.531-8.624l8.28-0.781L399.656,284.002z"/>
		<polygon style="fill:#89280A;" points="350.171,233.325 357.569,238.344 357.569,248.61 346.647,244.023 		"/>
		<path style="fill:#2E6875;" d="M296.995,324.71c0,0,27.017,17.324,45.372,17.943c18.355,0.619,16.293-18.335,25.779-27.729
			c9.487-9.394,16.057-15.168,16.057-15.168l-5.539-16.499l-8.456-4.537l-23.305-2.062l-29.549,8.228l-10.874,13.016L296.995,324.71
			z"/>
		<path style="fill:#448495;" d="M385.887,299.125c0,0-12.352-24.246-25.111-16.841c-12.758,7.405-2.843,19.841-18.945,25.986
			c-16.112,6.134-23.205-8.822-26.819-16.539c-1.448-3.072-3.77-4.895-6.291-5.832c-0.01,0-0.01,0-0.01,0
			c-2.958-1.083-6.176-0.969-8.572-0.25c-0.01,0-0.01,0-0.01,0c-0.687,0.208-1.312,0.469-1.833,0.76
			c-3.927,2.166-6.259,8.822-6.259,8.822l-5.395,23.778c0,0-9.551-10.311-13.592-31.11c-0.677-3.489-1.198-7.072-1.593-10.634
			c-1.937-17.706-0.75-34.724-0.75-34.724s-0.073-0.208-0.208-0.615c-1.25-3.479-7.426-21.039-11.425-35.963
			c-2.281-8.561-3.854-16.248-3.364-19.914c1.448-10.821,19.726-19.799,19.726-19.799l21.914-10.728c0,0,25.402,3.541,39.515,14.55
			c0,0.01,0,0.01,0,0.01c3.291,2.562,5.968,5.541,7.561,8.978c8.415,18.154,5.135,74.874,5.135,74.874l5.374,4.937l24.496,22.455
			c0,0,5.51,5.989,6.457,9.926C386.835,295.188,385.887,299.125,385.887,299.125z"/>
		<path style="fill:#2E6875;" d="M336.863,170.071c0,0.01,0,0.01,0,0.01c-3.781,11.55-11.311,26.215-26.288,36.234
			c-18.851,12.613-39.744,5.645-51.503-0.354c-2.281-8.561-3.854-16.248-3.364-19.914c1.448-10.821,19.726-19.799,19.726-19.799
			l21.914-10.728C297.349,155.521,322.751,159.062,336.863,170.071z"/>
		<path style="fill:#FF8D79;" d="M292.216,142.426c0,0,5.393,16.779,9.588,19.775c0,0,9.438,15.58-4.794,21.872
			c-14.232,6.292-20.674-4.494-20.674-4.494s0.449-10.636-0.899-13.333C274.089,163.55,292.216,142.426,292.216,142.426z"/>
		<path style="fill:#EFCECE;" d="M260.683,175.042c0,0,11.04,35.393,39.251,26.551c28.211-8.842,24.876-40.428,24.876-40.428
			s-17.051-7.28-27.841-6.447c0,0,12.62,20.826-1.649,27.148c-14.268,6.323-22.983-16.832-22.983-16.832
			S263.055,170.848,260.683,175.042z"/>
		<path style="fill:#FFD0CA;" d="M335.478,314.049l-6.947,7.322c0,0-4.833-7.624-8.009-11.092
			c-2.166-2.375-2.927-8.624-3.187-12.342c-0.115-1.729-0.135-2.906-0.135-2.906l-14.842-16.591l-3.124-3.489l10.123-10.571
			l16.456,24.007l2.718,5.885L335.478,314.049z"/>
		<path style="fill:#FFA597;" d="M335.478,314.049l-6.947,7.322c0,0-4.833-7.624-8.009-11.092
			c-2.166-2.375-2.927-8.624-3.187-12.342c0.01-0.01,0.01-0.021,0.021-0.031c4.249-7.207-7.259-26.954-7.259-26.954l-7.738,7.488
			l-3.124-3.489l10.123-10.571l16.456,24.007l2.718,5.885L335.478,314.049z"/>
		<path style="fill:#FFD0CA;" d="M413.717,390.236l-3.093,0.406l-12.498,1.625l-29.881-67.355l-9.999-22.549l-2.833-6.374
			c0,0-4.468-10.686,8.79-15.217c13.269-4.53,17.654,6.405,17.654,6.405l9.092,29.423L413.717,390.236z"/>
		<path style="fill:#F2A253;" d="M413.717,390.236l-3.093,0.406l-12.498,1.625l-29.881-67.355c3.479-0.979,9.29-2.729,15.258-5.072
			c2.51-0.979,5.051-2.062,7.447-3.239L413.717,390.236z"/>
		<path style="fill:#FFA597;" d="M413.717,390.236l-3.093,0.406l-39.317-102.62c-7.905,0.635-11.675,9.79-13.061,14.342
			l-2.833-6.374c0,0-4.468-10.686,8.79-15.217c13.269-4.53,17.654,6.405,17.654,6.405L413.717,390.236z"/>
		<path style="fill:#DD883C;" d="M413.717,390.236l-3.093,0.406l-27.121-70.802c2.51-0.979,5.051-2.062,7.447-3.239L413.717,390.236
			z"/>
		<path style="fill:#FFD0CA;" d="M317.356,304.259l-8.197,24.705l-21.684,65.355l-1.458,4.406l-16.873-2.625l17.487-77.061
			l5.405-23.809c0,0,2.677-10.363,11.8-10.342c1.531,0,3.26,0.302,5.187,1C322.355,290.699,317.356,304.259,317.356,304.259z"/>
		<path style="fill:#F2A253;" d="M309.159,328.964l-21.684,65.355l-1.458,4.406l-16.873-2.625l17.487-77.061
			c4.468,2.541,10.863,5.822,18.237,8.488C306.264,328.027,307.701,328.516,309.159,328.964z"/>
		<path style="fill:#FFA597;" d="M317.356,304.259l-29.881,90.059l-4.177-3.676c0,0,28.912-80.842,28.912-90.143
			c0-5.333-4.52-11.404-8.374-15.612c1.531,0,3.26,0.302,5.187,1C322.355,290.699,317.356,304.259,317.356,304.259z"/>
		<path style="fill:#DD883C;" d="M309.159,328.964l-21.684,65.355l-4.177-3.676c0,0,13.009-36.359,21.57-63.116
			C306.264,328.027,307.701,328.516,309.159,328.964z"/>
		<path style="fill:#FFF4EC;" d="M406.551,442.166c-22.674,1.958-23.372-9.374-20.153-24.496
			c3.218-15.112,8.363-24.996,8.363-24.996s-3.52-6.936,3.697-9.03c7.228-2.094,11.019,1.895,9.978,6.457
			c0,0,3.322-0.667,2.854-3.802c-0.479-3.135,0.042-3.791,0.042-3.791l-0.427-1.375c0,0,0.937-0.406,1.468,0.406
			c0.531,0.823,2.437,7.499,2.916,9.405c0.115,0.479,1.042,3.76,2.01,8.457C420.226,413.587,423.59,440.697,406.551,442.166z"/>
		<path style="fill:#FFF4EC;" d="M276.945,442.166c-16.675-1.437-13.8-27.454-10.925-41.858c1.031-5.176,2.062-8.853,2.187-9.363
			c0.479-1.906,2.385-8.582,2.916-9.405c0.531-0.812,1.469-0.406,1.469-0.406l-0.427,1.375c0,0,0.521,0.656,0.052,3.791
			c-0.479,3.135,2.843,3.802,2.843,3.802c-1.041-4.562,2.76-8.551,9.978-6.457c7.218,2.093,3.708,9.03,3.708,9.03
			s4.26,8.207,7.457,21.111c0.312,1.25,0.615,2.541,0.896,3.885C300.317,432.792,299.619,444.124,276.945,442.166z"/>
		<polygon style="fill:#2E6875;" points="322.686,222.25 324.933,187.363 325.727,218.859 		"/>
		<path style="fill:#FF8D79;" d="M327.406,327.819c0,0-3.662-8.102-2.467-9.219c1.195-1.117,2.467-0.398,2.467-0.398
			s-0.608-1.66,0.322-2.39c0.93-0.73,1.594-1.062,3.054-0.797c1.461,0.266,3.632,4.273,3.632,4.273L327.406,327.819z"/>
		<path style="fill:#89280A;" d="M264.633,170.695c0,0,31.717,43.789,60.443,58.029l0.651-9.865c0,0-48.977-39.776-56.352-52.257
			L264.633,170.695z"/>
		<path style="fill:#2E6875;" d="M336.863,276.656l11.596,16.219c0,0-0.275,11.983-11.596,14.396
			c-11.321,2.414-8.169-16.916-8.169-16.916L336.863,276.656z"/>
		<path style="fill:#FFD0CA;" d="M340.415,313.331c0,0-0.25,1.5-0.021,6.093c0.229,4.603-2.76,4.603-2.76,4.603
			c-0.771,2.375-2.156,2.812-3.218,2.739c-0.844-0.063-1.489-0.437-1.489-0.437c-1.5,1.948-3.677,3.333-5.52,1.489
			c-1.844-1.844,0.573-8.128,0-9.617c-0.552-1.448-1.52-8.047-1.864-8.516c0.104,0.531,1.364,6.832,0.083,10.426
			c-1.343,3.749-3.76,1.427-3.843,0c-0.094-1.427-2.322-7.062-1.968-11.082c0.354-4.01,3.281-11.259,3.281-11.259l4.645-39.525
			l0.729-6.218h15.956l-7.478,43.025C340.28,304.134,340.415,313.331,340.415,313.331z"/>
		<path style="fill:#FFA597;" d="M340.415,313.331c0,0-0.25,1.5-0.021,6.093c0.229,4.603-2.76,4.603-2.76,4.603
			s0.979-5.155-0.333-12.082c-1.312-6.926-5.208-16.664-5.208-16.664l5.208-36.307l-9.561-0.729l0.729-6.218h15.956l-7.478,43.025
			C340.28,304.134,340.415,313.331,340.415,313.331z"/>
		<path style="fill:#FFA597;" d="M334.416,319.288v7.478c-0.844-0.063-1.489-0.437-1.489-0.437L334.416,319.288z"/>
		<path style="fill:#EFCECE;" d="M406.551,442.166c-22.674,1.958-23.372-9.374-20.153-24.496c0.094,5.135,1.073,12.061,5.385,14.123
			c7.124,3.427,18.956,4.031,23.09-8.978c1.979-6.207,2.458-15.446,2.427-23.413C420.226,413.587,423.59,440.697,406.551,442.166z"
			/>
		<path style="fill:#EFCECE;" d="M276.945,442.166c-16.675-1.437-13.8-27.454-10.925-41.858
			c-0.687,11.832-0.292,27.298,5.957,30.975c10.446,6.134,21.122,2.5,22.715-1.594c0.802-2.073,1.26-9.29,1.51-15.904
			c0.312,1.25,0.615,2.541,0.896,3.885C300.317,432.792,299.619,444.124,276.945,442.166z"/>
		<polygon style="fill:#2E6875;" points="292.808,208.77 326.364,269.956 324.434,286.375 309.357,264.38 313.282,259.884 
			286.385,209.71 		"/>
		<path style="fill:#2E6875;" d="M300.796,211.159c7.603,9.176,24.28,17.565,24.28,17.565l-0.581,6.028
			c-0.281-0.042,1.516,0.309,1.193,0.257c-10.082-1.469-34.099-24.517-34.099-24.517L300.796,211.159z"/>
		<path style="fill:#2E6875;" d="M309.024,285.887c0,0-0.104,0-0.302,0.01c-0.01,0-0.01,0-0.01,0
			c-0.989,0.031-4.208,0.094-8.572-0.25c-0.01,0-0.01,0-0.01,0c-7.999-0.615-19.81-2.541-28.673-8.384
			c-1.937-17.706-0.75-34.724-0.75-34.724s-0.073-0.208-0.208-0.615c0.063-0.073,0.104-0.104,0.104-0.104l20.632,39.473l7.999-6.343
			L309.024,285.887z"/>
		<polygon style="fill:#2E6875;" points="328.469,252.027 320.964,252.027 324.495,234.157 296.995,214.512 295.564,217.915 
			322.686,273.141 325.989,273.141 		"/>
		<polygon style="fill:#D6ABAB;" points="367.967,261.911 378.67,243.826 408.049,256.892 398.6,281.581 		"/>
		<polygon style="fill:#EFCECE;" points="365.678,256.14 376.381,238.055 405.759,251.121 396.311,275.81 		"/>
		<path style="fill:#2E6875;" d="M354.934,258.87c-5.728,13.737-14.331,29.152-14.331,29.152l-1.208-7.061l5.031-28.933l5.135,1.906
			L354.934,258.87z"/>
		<polygon style="fill:#D6ABAB;" points="367.967,261.911 365.678,256.14 396.311,275.81 405.759,251.121 408.049,256.892 
			398.6,281.581 		"/>
		<polygon style="fill:#FFF4EC;" points="367.967,261.911 367.138,258.007 368.606,255.904 381.011,261.911 391.865,241.561 
			377.328,236.178 365.678,256.14 		"/>
		<path style="fill:#B76C72;" d="M273.24,405.647c-0.495-1.292,0.132-2.749,1.419-3.255c2.214-0.871,5.818-1.99,9.788-2.028
			c4.117-0.039,7.324,0.409,9.131,0.745c0.991,0.184,1.77,0.942,1.994,1.925l0.132,0.577c0.377,1.655-0.948,3.2-2.642,3.089
			c-4.385-0.287-11.987-0.52-16.638,0.823c-1.26,0.364-2.581-0.303-3.05-1.528L273.24,405.647z"/>
		<path style="fill:#B76C72;" d="M274.928,415.462c-0.442-1.311,0.244-2.742,1.551-3.195c2.231-0.773,5.837-1.731,9.76-1.61
			c4.07,0.126,7.225,0.696,9.004,1.101c0.983,0.224,1.731,1.013,1.915,2.004l0.1,0.536c0.309,1.662-1.066,3.16-2.747,2.982
			c-4.329-0.459-11.83-0.993-16.491,0.145c-1.274,0.311-2.567-0.407-2.986-1.65L274.928,415.462z"/>
		<path style="fill:#B76C72;" d="M410.556,405.647c0.495-1.292-0.132-2.749-1.419-3.255c-2.214-0.871-5.818-1.99-9.788-2.028
			c-4.116-0.039-7.324,0.409-9.131,0.745c-0.992,0.184-1.77,0.942-1.994,1.925l-0.132,0.577c-0.377,1.655,0.948,3.2,2.642,3.089
			c4.385-0.287,11.987-0.52,16.638,0.823c1.26,0.364,2.582-0.303,3.05-1.528L410.556,405.647z"/>
		<path style="fill:#B76C72;" d="M408.867,415.462c0.442-1.311-0.244-2.742-1.551-3.195c-2.231-0.773-5.837-1.731-9.76-1.61
			c-4.07,0.126-7.225,0.696-9.004,1.101c-0.983,0.224-1.731,1.013-1.915,2.004l-0.099,0.536c-0.309,1.662,1.066,3.16,2.747,2.982
			c4.329-0.459,11.83-0.993,16.491,0.145c1.274,0.311,2.567-0.407,2.986-1.65L408.867,415.462z"/>
	</g>
	<g>
		<g>
			
				<path style="fill:none;stroke:#DD4B1D;stroke-width:2.2779;stroke-linecap:round;stroke-linejoin:round;stroke-miterlimit:10;" d="
				M271.292,96.381c0,0-18.753-3.052-18.592-9.408C252.861,80.618,271.292,96.381,271.292,96.381z"/>
			<path style="fill:#384B82;" d="M237.387,148.946c0,0,10.62,34.046,2.811,46.228c0,0,15.782-12.182,8.047-46.228H237.387z"/>
			<path style="fill:#384B82;" d="M294.962,154.352c0,0,15.159-3.563,11.429-18.499c-3.729-14.936-14.829-23.777-14.829-23.777
				l-17.093,3.963l1.981,9.687L294.962,154.352z"/>
			<path style="fill:#6577B6;" d="M311.073,116.06c-13.132-2.882-13.132-2.882-13.132-2.882s6.549,17.824,19.43,9.863
				c0,0-13.918,17.631-29.282-2.79c-1.014-1.355-1.948-2.608-2.802-3.793c-12.221-16.697-9.863-17.05-9.863-17.05
				s-22.004-17.198-7.585-32.3c14.408-15.102,35.227,5.717,35.227,12.437c0,6.731,8.963-4.795,16.97,7.688
				c2.164,3.36,3.462,7.221,3.952,11.002C325.299,108.486,320.663,118.167,311.073,116.06z"/>
			<path style="fill:#384B82;" d="M311.073,116.06c-13.132-2.882-13.132-2.882-13.132-2.882s6.549,17.824,19.43,9.863
				c0,0-13.918,17.631-29.282-2.79c-1.014-1.355-1.948-2.608-2.802-3.793l0.786-9.852c0,0,20.672,4.1,30.467,0
				c3.713-1.549,6.014-4.863,7.449-8.371C325.299,108.486,320.663,118.167,311.073,116.06z"/>
			<path style="fill:#FFD0CA;" d="M295.493,152.484c-0.809,3.622-2.859,7.301-5.774,10.604
				c-6.629,7.494-17.745,12.995-28.929,11.275c-8.633-1.321-16.549-9.943-22.038-17.665c-2.984-4.191-5.262-8.132-6.549-10.49
				c-0.763-1.424-1.184-2.278-1.184-2.278s-13.052-22.562,9.681-37.494c21.07-13.85,37.904,0.866,44.829,9.966l0.011,0.011
				c1.116,1.469,1.982,2.802,2.551,3.838C292.201,127.655,298.124,140.639,295.493,152.484z"/>
			<path style="fill:#FFA597;" d="M295.493,152.484c-0.809,3.622-2.859,7.301-5.774,10.604
				c-5.057-14.521-17.107-32.972-17.107-32.972c-7.62,10.604-27.095,22.597-33.861,26.583c-2.984-4.191-5.262-8.132-6.549-10.49
				l4.191-6.515l24.954-22.87l19.647-3.667c0,0,1.879,1.196,4.533,3.246l0.011,0.011c1.116,1.469,1.982,2.802,2.551,3.838
				C292.201,127.655,298.124,140.639,295.493,152.484z"/>
			<path style="fill:#6577B6;" d="M284.423,129.869c0.302,0.521,8.52,14.425,7.145,28.183c0,0-10.498-23.444-18.955-31.35
				c0,0-12.446,12.717-21.33,18.195l-3.926-2.354l-1.969-1.187l0.792,2.396l1.146,3.468c0,0-0.531,0.521-1.416,1.354
				c-0.812,0.729-1.906,1.698-3.166,2.739c-2.156,1.76-4.791,3.708-7.353,5.02c0,0-0.739-0.958-1.823-2.656
				c-4.541-7.093-15.091-27.163-2.198-44.129c1.375-1.812,3.02-3.593,4.968-5.312c10.249-9.061,19.987-11.592,28.548-10.436
				c17.768,2.427,30.496,20.757,32.318,29.683C299.869,136.513,284.902,130.066,284.423,129.869z"/>
			<path style="fill:#FFA597;" d="M284.408,129.858c0,0-2.346-11.005,7.153-11.15c9.499-0.145,14.49,18.312,3.958,21.03
				C284.988,142.455,284.408,129.858,284.408,129.858z"/>
			<path style="fill:#6577B6;" d="M272.612,126.702c0,0,21.944,34.313,24.905,52.099c0,0-5.841-46.445-16.784-58.101
				L272.612,126.702z"/>
			<path style="fill:#384B82;" d="M242.737,151.311c-2.153,1.765-4.784,3.713-7.346,5.023c0,0-19.988-25.774-4.021-46.788
				c-0.535,5.695-0.615,12.95,0.831,20.569C234.252,140.855,239.309,147.723,242.737,151.311z"/>
			<path style="fill:#384B82;" d="M247.327,147.222c0,0-0.535,0.524-1.424,1.355h-0.011l-0.501-7.221L247.327,147.222z"/>
			
				<path style="fill:none;stroke:#DD4B1D;stroke-width:2.2779;stroke-linecap:round;stroke-linejoin:round;stroke-miterlimit:10;" d="
				M271.119,95.345c0,0,10.794,4.925,17.404,12.538"/>
			
				<path style="fill:none;stroke:#DD4B1D;stroke-width:2.2779;stroke-linecap:round;stroke-linejoin:round;stroke-miterlimit:10;" d="
				M274.469,97.073c0,0-15.219-23.061-5.942-26.211C277.804,67.711,274.469,97.073,274.469,97.073z"/>
			<path style="fill:#384B82;" d="M264.885,93.801c-0.396,5.322-1.385,12.79-3.541,23.017c-2.302,10.946-8.03,19.476-13.988,25.725
				l-1.969-1.187l0.792,2.396c-4.718,4.687-9.436,7.978-12.613,9.926c-4.541-7.093-15.091-27.163-2.198-44.129
				c1.375-1.812,3.02-3.593,4.968-5.312C246.585,95.176,256.323,92.645,264.885,93.801z"/>
		</g>
		
			<path style="fill:none;stroke:#D66D5F;stroke-width:1.3269;stroke-linecap:round;stroke-linejoin:round;stroke-miterlimit:10;" d="
			M288.523,128.561c0,0-0.926-5.46,3.039-6.461c3.964-1.001,8.75,7.663,5.955,12.739c0,0-1.354-4.186-2.81-2.548
			c-1.456,1.638-0.637,3.458-0.637,3.458"/>
	</g>
	<g>
		<path style="fill:#FFD0CA;" d="M251.47,102.925c-0.323,3.562-0.771,7.238-1.208,10.936c-2.229,18.955-14.56,32.193-28.152,31.37
			c-0.448-0.021-0.896-0.063-1.344-0.115c-0.323-0.042-0.656-0.083-0.979-0.146c-14.487-2.562-25.861-15.519-29.902-24.038
			c-3.468-7.301-0.948-28.579-0.146-34.505c0.135-0.989,0.219-1.552,0.219-1.552c8.092-17.477,27.486-21.528,46.451-15.987
			C251.876,73.408,252.897,87.146,251.47,102.925z"/>
		<path style="fill:#FFA597;" d="M251.47,102.925c-0.323,3.562-0.771,7.238-1.208,10.936c-2.229,18.955-14.56,32.193-28.152,31.37
			c21.955-9.624,25.215-42.306,25.215-42.306H251.47z"/>
		<polygon style="fill:#FFA597;" points="204.437,90.922 233.456,105.146 239.973,95.837 239.465,108.444 249.116,113.862 
			252.699,96.381 248.469,82.35 211.152,83.849 		"/>
		<path style="fill:#6B5151;" d="M254.05,114.45c-4.576-3.525-15.707-9.284-15.707-9.284v-8.053l-0.869,1.062l-4.02,4.853
			c-11.493-6.604-29.108-8.439-29.108-8.439l-8.668,15.622V95.146l-8.56-8.391c7.642-24.423,26.548-36.545,52.952-25.884
			c0.362,0.145,0.712,0.302,1.062,0.459C267.861,73.318,254.05,114.45,254.05,114.45z"/>
		<path style="fill:#FFA597;" d="M195.682,95.147c0,0-2.084-10.622-11.098-7.98c-9.014,2.642-6.253,16.93-3.107,20.516
			c3.145,3.586,8.704,5.129,11.812,3.575C196.398,109.703,195.682,95.147,195.682,95.147z"/>
		<path style="fill:#3F2F2F;" d="M254.05,114.45c-4.576-3.525-15.707-9.284-15.707-9.284v-8.053l-0.869,1.062
			c2.439-6.507,4.938-14.584,5.143-20.838c0.193-5.59-0.579-11.348-1.485-16.009C267.861,73.318,254.05,114.45,254.05,114.45z"/>
		
			<path style="fill:none;stroke:#D66D5F;stroke-width:1.4065;stroke-linecap:round;stroke-linejoin:round;stroke-miterlimit:10;" d="
			M193.382,101.674c0,0-0.258-10.819-6.264-10.819c-6.006,0-6.665,11.798-2.839,15.069c0,0,0.389-4.043,2.834-3.685
			c2.444,0.359,2.626,5.24,2.626,5.24"/>
	</g>
	<g>
		<path style="fill:#92341C;" d="M256.978,144.226l2.363,2.709c0,0,3.803-8.277,10.869-8.152
			C270.21,138.784,264.196,134.831,256.978,144.226z"/>
		<path style="fill:#70401D;" d="M274.784,143.345c0.047,0.637-1.085,1.345-1.214,1.424c-0.11-0.029-0.226-0.051-0.34-0.074
			c0.752-0.763,0.502-2.426,0.502-2.426c0.087,0.813-0.949,1.89-1.402,2.319c-0.206-0.007-0.416,0.001-0.631,0.021
			c0.303-0.794-0.134-2.094-0.134-2.094c0.14,0.717-0.331,1.671-0.671,2.242c-0.716,0.193-1.458,0.56-2.19,1.209
			c-4.699,4.167-2.515,9.869-2.515,9.869s-1.443-4.052,2.988-8.808c2.306-2.475,6.646-1.176,6.646-1.176s-0.592-0.466-1.514-0.834
			C275.18,144.214,274.784,143.345,274.784,143.345z"/>
		<path style="fill:#92341C;" d="M247.496,152.082l2.025,2.5c0,0-7.881,2.08-8.857,8.328
			C240.663,162.91,238.104,157.001,247.496,152.082z"/>
		<path style="fill:#70401D;" d="M243.98,167.642c0.554,0.139,1.353-0.749,1.442-0.851c-0.009-0.101-0.01-0.207-0.013-0.311
			c-0.788,0.545-2.215,0.07-2.215,0.07c0.703,0.202,1.812-0.546,2.26-0.879c0.026-0.182,0.065-0.367,0.115-0.553
			c-0.746,0.145-1.825-0.44-1.825-0.44c0.61,0.234,1.524-0.035,2.079-0.247c0.28-0.602,0.717-1.199,1.403-1.745
			c4.396-3.502,9.086-0.7,9.086-0.7s-3.35-1.895-8.223,1.279c-2.537,1.652-2.058,5.678-2.058,5.678s-0.32-0.593-0.502-1.463
			C244.686,168.125,243.98,167.642,243.98,167.642z"/>
		<path style="fill:#F76A23;" d="M259.016,161.288c0,0,2.315,6.12,3.649,6.089c1.334-0.031,2.721-1.6,2.393-2.29
			C264.73,164.399,259.369,159.559,259.016,161.288z"/>
		<path style="fill:#F76A23;" d="M269.844,167.381l0.615-1.481l4.567-11.059l0.399-0.968
			C275.425,153.873,280.584,168.292,269.844,167.381z"/>
		<path style="fill:#FFF4EC;" d="M275.425,156.698c0,0-2.95,8.257-3.622,8.963c-0.365,0.387-0.923,0.353-1.344,0.239l4.567-11.059
			C275.436,155.536,275.425,156.698,275.425,156.698z"/>
		<path style="fill:#ED7279;" d="M281.466,146.12c0.61,0.831-0.507,2.688-2.494,4.146c-1.988,1.458-4.093,1.967-4.703,1.135
			c-0.61-0.831,0.507-2.688,2.494-4.146C278.751,145.797,280.856,145.289,281.466,146.12z"/>
		<path style="fill:#ED7279;" d="M255.825,166.304c0.61,0.831-0.507,2.688-2.494,4.146c-1.988,1.458-4.093,1.967-4.703,1.135
			c-0.61-0.831,0.507-2.688,2.494-4.146C253.11,165.981,255.215,165.472,255.825,166.304z"/>
	</g>
	<g>
		<path style="fill:#92341C;" d="M224.731,106.236l-1.557,4.74c0,0-9.333-8.525-18.297-4.548
			C204.877,106.427,210.429,98.126,224.731,106.236z"/>
		<path style="fill:#F76A23;" d="M229.438,126.932c0,0-0.16,6.935-1.505,7.373c-1.344,0.438-3.284-0.642-3.199-1.447
			C224.819,132.054,228.476,125.328,229.438,126.932z"/>
		<path style="fill:#70401D;" d="M215.347,119.125c-0.898,1.893-2.406,3.057-3.368,2.6c-0.962-0.457-1.015-2.361-0.117-4.254
			c0.898-1.893,2.406-3.057,3.368-2.6C216.193,115.328,216.245,117.232,215.347,119.125z"/>
		<path style="fill:#92341C;" d="M238.547,112.018l-2.311,4.421c0,0,10.568-0.327,12.674,8.194
			C248.91,124.633,251.466,115.115,238.547,112.018z"/>
		<path style="fill:#70401D;" d="M235.853,127.732c-0.73,1.963-0.513,3.856,0.485,4.227c0.998,0.371,2.4-0.919,3.13-2.883
			c0.73-1.963,0.513-3.856-0.485-4.227C237.985,124.478,236.583,125.769,235.853,127.732z"/>
		<path style="fill:#F76A23;" d="M220.113,136.713c0,0-11.599,1.871-15.405-3.489c-6.105-8.596,0-15.719,0-15.719
			s0.338,0.761,0.978,1.992c1.908,3.658,6.411,11.481,12.182,15.767C218.592,135.807,219.34,136.302,220.113,136.713z"/>
		<path style="fill:#FFF4EC;" d="M217.867,135.264c-0.555,0.41-1.4,1.014-1.811,1.086c-0.652,0.121-2.137-0.374-5.481-3.598
			c-3.356-3.224-6-8.584-6.133-10.516c-0.072-1.099,0.628-2.089,1.244-2.741C207.593,123.155,212.097,130.978,217.867,135.264z"/>
		<path style="fill:#ED7279;" d="M208.66,115.425c-0.656,0.874-2.882,0.31-4.972-1.259c-2.089-1.569-3.251-3.55-2.595-4.424
			c0.656-0.874,2.882-0.31,4.972,1.259C208.155,112.57,209.317,114.551,208.66,115.425z"/>
	</g>
	<g>
		<path style="fill:#D679CD;" d="M342.973,140.759c-1.882-5.711-8.947-8.555-12.304-1.895c-3.359,6.66,4.46,17.456,4.46,17.456
			s13.327-0.134,16.686-6.795C355.172,142.864,348.683,138.877,342.973,140.759L342.973,140.759z"/>
		<path style="fill:#D679CD;" d="M381.254,109.742c-4.124-1.862-9.296,0.609-7.311,5.859c1.984,5.251,11.949,6.407,11.949,6.407
			s6.706-7.459,4.721-12.71C388.628,104.048,383.116,105.617,381.254,109.742L381.254,109.742z"/>
		<path style="fill:#D679CD;" d="M353.711,100.755c-1.879-4.116-7.399-5.661-9.36-0.402c-1.963,5.259,4.777,12.689,4.777,12.689
			s9.958-1.201,11.92-6.46C363.01,101.323,357.827,98.876,353.711,100.755L353.711,100.755z"/>
	</g>
	<g>
		<defs>
			<polygon id="SVGID_1_" points="500,500 0,500 0,0 500,0 500,500 			"/>
		</defs>
		<clipPath id="SVGID_00000047755988143198754590000008962949519089200524_">
			<use xlink:href="#SVGID_1_"  style="overflow:visible;"/>
		</clipPath>
		<g style="clip-path:url(#SVGID_00000047755988143198754590000008962949519089200524_);">
			<path style="fill:#FFFFFF;" d="M500,86.693c-1.251-1.002-2.739-1.72-4.372-2.044c-2.293-5.158-7.457-8.755-13.465-8.755
				c-5.804,0-10.823,3.357-13.224,8.234c-2.375-2.846-5.948-4.658-9.945-4.658c-0.308,0-0.613,0.015-0.915,0.035
				c-2.287-6.683-8.619-11.491-16.077-11.491c-6.997,0-13.004,4.23-15.609,10.272c-4.531,1.337-8.151,4.792-9.716,9.22
				c-0.598-0.109-1.211-0.174-1.839-0.174c-5.642,0-10.216,4.575-10.216,10.216c0,0-25.054,8.231-29.914,8.865
				c-4.862,0.633,8.155,1.351,8.155,1.351H500V86.693L500,86.693z"/>
			<path style="fill:#FFFFFF;" d="M111.033,46.5c-0.272-6.363-4.885-11.599-10.961-12.805c-3.066-6.895-9.972-11.706-18.005-11.706
				c-7.76,0-14.469,4.489-17.681,11.009c-3.175-3.806-7.952-6.228-13.296-6.228c-0.412,0-0.82,0.02-1.225,0.048
				c-3.057-8.936-11.523-15.364-21.495-15.364c-9.356,0-17.388,5.656-20.87,13.734c-2.816,0.831-5.364,2.28-7.5,4.182v35.232
				h168.016L111.033,46.5L111.033,46.5z"/>
		</g>
		<g style="clip-path:url(#SVGID_00000047755988143198754590000008962949519089200524_);">
			<polygon style="fill:#5E3C0F;" points="8.755,212.378 20.281,80.338 75.945,0.438 36.264,0.438 8.205,35.788 15.545,0.438 
				-3.516,0.438 -74.564,410.088 -78.392,439.938 -79.06,445.146 -71.394,500 0.979,500 0.998,497.968 2.978,283.238 
				61.523,166.928 54.562,161.268 			"/>
			<polygon style="fill:#5E3C0F;" points="485.468,141.518 479.719,80.338 424.055,0.438 463.735,0.438 491.795,35.788 
				484.455,0.438 503.515,0.438 574.564,410.088 578.392,439.938 579.06,445.146 571.394,500 499.021,500 499.002,497.968 
				491.245,212.378 459.679,139.859 466.64,134.199 			"/>
		</g>
		<path style="clip-path:url(#SVGID_00000047755988143198754590000008962949519089200524_);fill:#38775F;" d="M476.386,477.313
			c-1.807-0.069-1.519,3.841-6.514,17.029c-4.995,13.189-14.05,16.218-14.05,16.218c10.65-14.017,14.1-33.847,13.105-35.472
			c-0.994-1.624-10.918,16.912-10.918,16.912s4.522-14.11,6.761-26.33c2.242-12.22,1.78-30.184,0.537-30.286
			c-1.243-0.104-0.731,9.947-3.363,24.932c-2.631,14.984-12.129,29.82-12.129,29.82s3.889-32.442,3.731-43.334
			c-0.159-10.891,0.176-15.73-1.432-16.576c-1.608-0.845-1.379,29.142-6.096,44.559c0,0-1.847-18.712-2.335-34.008
			c-0.488-15.297,0.324-23.077-1.054-24.018c-1.378-0.943-2.962,39.356-2.168,63.819c0,0-6.873-29.173-8.912-39.847
			c-2.04-10.673-4.111-29.479-5.48-30.2c-1.37-0.72,2.467,37.492,8.516,67.044c0,0-6.192-13.772-9.365-26.258
			c-3.173-12.484-3.46-19.624-4.832-20.511c-1.371-0.887,2.718,29.981,8.612,47.461c0,0-5.464-6.77-12.517-20.633
			c-7.053-13.862-9.115-25.223-10.545-24.775c-1.432,0.45,8.175,38.931,22.705,58.668c0,0-8.317-9.937-12.604-19.046
			c-4.286-9.109-7.123-17.611-8.492-17.62c-1.368-0.008,10.283,31.144,16.348,39.767c0,0-10.154-7.115-16.412-20.564
			c-6.257-13.451-5.836-18.645-7.595-17.814c-1.757,0.831,7.299,32.709,18.827,42.901c0,0-12.448-10.281-12.812-6.888
			c-0.364,3.392,18.674,20.409,18.674,20.409c0.01,3.912-11.864-7.492-21.511-18.759c-6.639-7.753-11.96-16.953-12.691-14.954
			c-0.997,2.728,10.595,30.36,30.957,40.937c7.665,3.982,16.571,3.648,26.519,1.42c16.517-3.702,21.257-11.979,24.227-20.046
			C475.049,493.206,478.193,477.382,476.386,477.313L476.386,477.313z"/>
		<path style="clip-path:url(#SVGID_00000047755988143198754590000008962949519089200524_);fill:#38775F;" d="M31.066,521.109
			l3.342-1.594l-1.362,2.501c1.001,0.437,1.615,0.695,1.615,0.695s47.586,23.141,96.26,11.19c0,0,8.19-5.616,15.014-16.93
			c0.757-1.268-1.942-6.038-1.942-6.038s5.642-1.037,6.324-2.699c6.993-17.156-0.682-28.029-12.818-22.901
			c-0.669,0.284-0.979,2.975-0.979,2.975s-2.162-1.581-2.729-1.311c-6.714,3.213-8.616,5.386-9.128,6.194
			c0.755-1.46,3.707-7.467,5.538-15.114l-3.285-3.616l4.341-2.026c0.765-5.719,0.624-11.897-1.538-17.591
			c-2.621-6.897-7.124-5.296-11.563-0.926l1.657,4.099l-5.164-0.132c-5.2,6.615-9.546,15.083-9.546,15.083s0.473-2.951,0.687-6.961
			c0.05-0.907-3.68-2.583-3.634-2.923c0.044-0.324,3.728-2.09,3.678-3.203c-0.312-6.806-1.991-13.978-7.514-15.238
			c-10.984-2.501-16.704,29.405-16.704,29.405s-0.411-3.784-2.381-9.004l-5.968-0.808l4.03-3.64
			c-1.764-3.575-4.236-7.456-7.681-11.102c-10.54-11.179-8.093,26.758-8.093,26.758s-0.497-1.054-1.34-2.658l-4.727,1.571
			l2.974-4.751c-3.462-6.017-9.121-14.231-13.129-11.904c-1.923,1.11-2.665,4.29-2.765,8.133l2.302,0.952l-2.236,2.878
			c0.447,7.564,2.419,15.881,2.523,16.324c-0.311-0.472-5.268-7.997-10.794-11.871l-1.248,2.263l-0.67-3.417
			c-1.853-0.964-3.715-1.381-5.438-0.875c-3.599,1.067-1.37,7.281,2.032,13.609l4.505,0.61l-2.685,2.616
			c3.551,6.037,7.462,11.365,7.462,11.365s-1.259-0.754-3.085-1.715l-0.435,3.213l-1.852-4.344
			c-4.39-2.067-10.062-4.05-11.352-1.272c-2.177,4.668,16.16,17.46,16.16,17.46s-7.44-3.568-13.152-4.715l-0.198,1.463l-1.221-1.711
			c-2.316-0.305-4.158-0.07-4.788,1.208C16.804,513.867,25.806,518.651,31.066,521.109L31.066,521.109z"/>
		<g style="clip-path:url(#SVGID_00000047755988143198754590000008962949519089200524_);">
			<path style="fill:#5AAF92;" d="M39.876,455.495c0,0-21.172-29.087-11.629-61.028c9.543-31.941,16.782-54.787,16.424-67.702
				c0,0,28.022,42.38,21.576,76.338C59.8,437.061,39.876,455.495,39.876,455.495z"/>
			<path style="fill:#5AAF92;" d="M78.083,437.133c0,0-7.628-45.607,25.825-71.313c33.453-25.706,50.019-32.367,50.019-32.367
				s-13.476,25.849-15.514,38.045c-2.038,12.196-19.329,39.181-34.957,48.492C87.827,429.302,78.083,437.133,78.083,437.133z"/>
			<path style="fill:#489378;" d="M155.301,434.899c-0.012,0.007-0.005,0.018-0.016,0.025c-2.637,3.012-5.822,6.195-9.598,9.529
				c0,0,9.295-20.596-8.859-22.67c-8.077-0.92-21.585,1.814-43.781,11.676c0,0,30.487-32.013,52.159-33.213
				C164.335,399.199,175.225,412.2,155.301,434.899z"/>
			<path style="fill:#489378;" d="M34.709,484.157c0,0-10.53-28.931-45.389-5.369C-10.679,478.787,5.559,499.009,34.709,484.157z"/>
			<g>
				<path style="fill:#5AAF92;" d="M39.764,489.456c-0.136-0.178-13.961-17.756-41.845-9.435l-0.381-1.276
					c28.824-8.562,43.143,9.719,43.284,9.904L39.764,489.456z"/>
			</g>
			<path style="fill:#5AAF92;" d="M13.586,483.852c-16.724,5.006-42.451-22.394-52.214-21.566c-0.671,0.044-1.265,0.243-1.778,0.579
				c-7.983,5.298-5.415,16.967-5.415,16.967c-2.916-3.36-4.686-6.721-5.499-9.985l0.011-0.007
				c-4.875-19.234,23.153-34.91,41.556-25.161C11.769,456.072,13.586,483.852,13.586,483.852z"/>
			<path style="fill:#5AAF92;" d="M-20.549,529.115c-6.041,5.567-12.232,6.668-17.433,5.01c-13.196-4.207-20.03-26.131-1.906-37.471
				c25.26-15.824,54.039,10.301,54.039,10.301c-20.465-1.534-46.126,14.266-46.126,14.266
				C-33.949,530.468-20.549,529.115-20.549,529.115z"/>
			<g>
				<path style="fill:#86C4AE;" d="M35.887,596.735l-0.97-0.234c0.176-0.728,17.117-72.946-20.956-89.086
					c-11.765-4.986-29.303-9.03-46.044,0.015c-10.025,5.42-15.08,13.083-15.13,13.159l-0.837-0.543
					c0.203-0.314,20.83-31.173,62.401-13.55c16.103,6.826,24.928,24.623,25.518,51.464
					C40.312,578.147,35.931,596.552,35.887,596.735z"/>
			</g>
			<g>
				<path style="fill:#86C4AE;" d="M37.785,574.787l-0.993-0.094c0.052-0.553,4.921-55.658-23.594-90.531
					c-30.143-36.866-43.715-38.649-53.895-35.075l-0.331-0.943c10.524-3.685,24.465-1.958,54.999,35.386
					C42.749,518.726,37.839,574.231,37.785,574.787z"/>
			</g>
			<g>
				<path style="fill:#A9DBC6;" d="M43.776,576.778l-0.665,0.028c-0.041-0.944-4.091-94.703-3.568-121.318
					c0.331-16.869,3.137-42.845,5.391-63.717c1.295-11.99,2.414-22.345,2.613-27.113l0.535-12.785l0.665,0.028l-0.535,12.785
					c-0.2,4.789-1.319,15.155-2.616,27.157c-2.253,20.859-5.056,46.819-5.387,63.659C39.686,482.096,43.735,575.834,43.776,576.778z
					"/>
			</g>
			<g>
				<path style="fill:#A9DBC6;" d="M59.74,574.471l-0.663,0.05c-0.068-0.885-6.498-89.157,18.712-137.542
					c25.513-48.966,39.275-69.531,56.633-84.632l0.437,0.502c-17.286,15.038-31.01,35.556-56.48,84.437
					C53.255,485.504,59.672,573.586,59.74,574.471z"/>
			</g>
			<g>
				<path style="fill:#A9DBC6;" d="M67.559,466.724l-0.602-0.283c0.103-0.219,10.458-22.017,25.898-33.254
					c27.956-20.347,49.308-29.131,63.462-26.11l-0.139,0.651c-13.965-2.984-35.135,5.766-62.932,25.996
					C77.942,444.863,67.661,466.507,67.559,466.724z"/>
			</g>
			<path style="fill:#5AAF92;" d="M155.301,434.899c-0.012,0.007-0.005,0.018-0.016,0.025c-2.637,3.012-5.822,6.195-9.598,9.529
				c0,0,9.295-20.596-8.859-22.67c0,0,12.927-1.861,16.294,0.904C156.49,425.453,158.407,429.191,155.301,434.899z"/>
			<path style="fill:#B1DDCD;" d="M-38.628,462.286c-0.671,0.044-1.265,0.243-1.778,0.579c-7.983,5.298-5.415,16.967-5.415,16.967
				c-2.916-3.36-4.686-6.721-5.499-9.985l0.011-0.007C-46.663,461.542-38.628,462.286-38.628,462.286z"/>
			<path style="fill:#B1DDCD;" d="M-20.549,529.115c-6.041,5.567-12.232,6.668-17.433,5.01c-4.099-8.232,6.007-12.905,6.007-12.905
				C-33.949,530.468-20.549,529.115-20.549,529.115z"/>
		</g>
		<g style="clip-path:url(#SVGID_00000047755988143198754590000008962949519089200524_);">
			<path style="fill:#5AAF92;" d="M503.694,383.193c0,0-21.017-37.297-5.336-73.735c15.68-36.438,27.384-62.445,28.74-77.759
				c0,0,27.282,53.954,14.984,93.202C529.785,364.149,503.694,383.193,503.694,383.193z"/>
			<path style="fill:#5AAF92;" d="M551.385,366.753c0,0-2.733-54.957,40.35-80.731c43.083-25.774,63.58-31.365,63.58-31.365
				s-19.489,28.696-23.579,42.831c-4.09,14.135-28.245,43.648-48,52.5C563.981,358.84,551.385,366.753,551.385,366.753z"/>
			<path style="fill:#489378;" d="M642.961,374.752c-0.014,0.006-0.008,0.021-0.022,0.027c-3.531,3.196-7.735,6.52-12.658,9.941
				c0,0,13.824-23.063-7.347-28.016c-9.42-2.2-25.762-0.83-53.357,7.768c0,0,40.446-33.639,66.227-32.07
				C658.558,333.8,669.639,350.667,642.961,374.752z"/>
			<path style="fill:#489378;" d="M493.639,416.358c0,0-8.461-35.646-52.909-12.6C440.73,403.758,457.138,429.897,493.639,416.358z"
				/>
			<g>
				<path style="fill:#5AAF92;" d="M498.883,423.318c-0.137-0.229-14.055-22.91-48.16-16.917l-0.274-1.561
					c35.249-6.149,49.655,17.432,49.796,17.67L498.883,423.318z"/>
			</g>
			<path style="fill:#5AAF92;" d="M468.713,413.087c-20.457,3.613-47.091-32.318-58.744-32.685c-0.8-0.041-1.529,0.112-2.181,0.439
				c-10.165,5.162-8.738,19.309-8.738,19.309c-2.984-4.373-4.612-8.589-5.124-12.56l0.014-0.007
				c-3.112-23.406,32.176-38.073,52.585-24.014C470.393,380.002,468.713,413.087,468.713,413.087z"/>
			<path style="fill:#5AAF92;" d="M422.13,461.884c-7.907,5.747-15.377,6.196-21.296,3.52c-15.018-6.79-20.075-33.646,2.91-44.553
				c32.037-15.223,62.453,19.62,62.453,19.62c-23.978-4.633-56.486,10.507-56.486,10.507
				C406.105,461.637,422.13,461.884,422.13,461.884z"/>
			<g>
				<path style="fill:#86C4AE;" d="M479.519,549.585l-1.115-0.411c0.308-0.836,30.283-83.862-12.496-108.185
					c-13.219-7.514-33.392-14.71-54.424-6.326c-12.596,5.025-19.627,13.386-19.696,13.469l-0.915-0.757
					c0.283-0.344,28.916-33.975,75.623-7.418c18.093,10.287,26.071,32.538,23.071,64.346
					C487.311,528.224,479.597,549.374,479.519,549.585z"/>
			</g>
			<g>
				<path style="fill:#86C4AE;" d="M484.788,523.905l-1.161-0.248c0.138-0.646,13.486-65.108-15.414-110.257
					c-30.549-47.728-46.345-51.705-58.87-48.884l-0.261-1.16c12.947-2.905,29.187,1.057,60.132,49.403
					C498.379,458.325,484.927,523.255,484.788,523.905z"/>
			</g>
			<g>
				<path style="fill:#A9DBC6;" d="M491.594,527.083l-0.79-0.058c0.081-1.122,8.213-112.499,12.498-143.886
					c2.716-19.893,9.611-50.209,15.151-74.569c3.183-13.994,5.932-26.079,6.824-31.687l2.393-15.038l0.781,0.125l-2.393,15.038
					c-0.896,5.633-3.648,17.73-6.833,31.739c-5.537,24.344-12.427,54.642-15.138,74.501
					C499.805,414.608,491.675,525.961,491.594,527.083z"/>
			</g>
			<g>
				<path style="fill:#A9DBC6;" d="M510.781,526.556l-0.791-0.032c0.042-1.056,4.604-106.277,41.067-159.993
					c36.903-54.361,56.002-76.772,78.599-92.23l0.447,0.654c-22.504,15.393-41.552,37.753-78.391,92.021
					C515.374,420.506,510.822,525.501,510.781,526.556z"/>
			</g>
			<g>
				<path style="fill:#A9DBC6;" d="M534.867,400.279l-0.673-0.417c0.151-0.245,15.394-24.582,35.193-35.737
					c35.847-20.198,62.294-27.638,78.608-22.117l-0.254,0.751c-16.095-5.451-42.323,1.974-77.965,22.056
					C550.152,375.871,535.018,400.036,534.867,400.279z"/>
			</g>
			<path style="fill:#5AAF92;" d="M642.961,374.752c-0.014,0.006-0.008,0.021-0.022,0.027c-3.531,3.196-7.735,6.52-12.658,9.941
				c0,0,13.824-23.063-7.347-28.016c0,0,15.536-0.419,19.135,3.314C645.668,363.751,647.419,368.434,642.961,374.752z"/>
			<path style="fill:#B1DDCD;" d="M409.969,380.403c-0.8-0.041-1.529,0.112-2.181,0.439c-10.165,5.162-8.738,19.309-8.738,19.309
				c-2.984-4.373-4.612-8.589-5.124-12.56l0.014-0.007C400.575,378.416,409.969,380.403,409.969,380.403z"/>
			<path style="fill:#B1DDCD;" d="M422.13,461.884c-7.907,5.747-15.377,6.196-21.296,3.52c-3.711-10.295,8.878-14.426,8.878-14.426
				C406.105,461.637,422.13,461.884,422.13,461.884z"/>
		</g>
		<path style="clip-path:url(#SVGID_00000047755988143198754590000008962949519089200524_);fill:#A9DBC6;" d="M46.164,500
			c0,0,3.982-5.956-13.322-16.755c0,0,32.586,10.326,34.384,1.786c1.798-8.54-30.114-18.203-30.114-18.203
			s43.823-1.348,42.474-10.562c-1.348-9.214-54.16-7.641-54.16-7.641s36.031-9.415,34.609-15.282
			c-1.422-5.867-42.924,2.697-42.924,2.697s24.022-48.34,16.608-53.679c-7.414-5.338-19.87,20.76-19.87,20.76
			s3.855-25.801-2.372-27.877C5.248,373.167,0,395.41,0,395.41V500H46.164z"/>
		<path style="clip-path:url(#SVGID_00000047755988143198754590000008962949519089200524_);fill:#A9DBC6;" d="M460.938,500
			c0,0-3.37-5.04,11.272-14.177c0,0-27.573,8.737-29.095,1.511s25.482-15.403,25.482-15.403s-37.082-1.141-35.94-8.938
			c1.141-7.797,45.829-6.466,45.829-6.466s-30.488-7.966-29.285-12.931c1.203-4.964,36.321,2.282,36.321,2.282
			s-20.327-40.904-14.053-45.421c6.274-4.517,16.813,17.566,16.813,17.566s-3.262-21.832,2.008-23.589
			c5.27-1.757,9.71,17.064,9.71,17.064V500H460.938z"/>
	</g>
</g>
</svg>
