<svg xmlns="http://www.w3.org/2000/svg" viewBox="0 0 64 64" xml:space="preserve" style="fill-rule:evenodd;clip-rule:evenodd;stroke-linecap:round;stroke-linejoin:round;stroke-miterlimit:2"><path d="M55 38h-2.5M45.5 32h-8M33.75 32H18.5s-.234-4.165 4-8" style="fill:none;stroke:#222a33;stroke-width:1.5px"/><circle cx="20" cy="45" r="5.5" style="fill:none;stroke:#222a33;stroke-width:1.5px"/><path d="M38.5 45c0-3.036 2.464-5.5 5.5-5.5s5.5 2.464 5.5 5.5-2.464 5.5-5.5 5.5a5.495 5.495 0 0 1-4.609-2.5" style="fill:none;stroke:#222a33;stroke-width:1.5px"/><path d="M14.5 45h-3.287A3.212 3.212 0 0 1 8 41.787v-1.559C8 38.997 8.998 38 10.228 38h.002c.456 0 .856-.302.982-.741l2.241-7.845A7.465 7.465 0 0 1 20.63 24h17.191a4.41 4.41 0 0 1 4.184 3.016l.272.815A7.56 7.56 0 0 0 49.449 33h.657c1.298 0 2.543.516 3.461 1.433A4.898 4.898 0 0 1 55 37.894V38a1 1 0 0 1 1 1v2.787A3.212 3.212 0 0 1 52.787 45H49.5M38.5 45H29M39.491 20.741a5.7 5.7 0 0 1 6.976 4.028M38.385 16.615c5.314-1.424 10.785 1.734 12.209 7.049" style="fill:none;stroke:#222a33;stroke-width:1.5px"/><path d="M37.279 12.488c7.592-2.034 15.408 2.478 17.442 10.07" style="fill:none;stroke:#222a33;stroke-width:1.5px"/></svg>